<svg width="62" height="43" viewBox="0 0 62 43" fill="none" xmlns="http://www.w3.org/2000/svg">
<path d="M8.39996 21.22C6.30263 21.22 4.65996 20.714 3.47196 19.702C2.29863 18.6753 1.67529 17.194 1.60196 15.258C1.58729 14.862 1.57996 14.2167 1.57996 13.322C1.57996 12.4127 1.58729 11.7527 1.60196 11.342C1.67529 9.43533 2.31329 7.96867 3.51596 6.942C4.71863 5.90067 6.34663 5.38 8.39996 5.38C9.69063 5.38 10.8493 5.6 11.876 6.04C12.9027 6.46533 13.7093 7.08133 14.296 7.888C14.8973 8.68 15.2053 9.61133 15.22 10.682V10.726C15.22 10.8433 15.1687 10.946 15.066 11.034C14.978 11.1073 14.8753 11.144 14.758 11.144H11.788C11.5973 11.144 11.4507 11.1073 11.348 11.034C11.2453 10.946 11.1573 10.792 11.084 10.572C10.8787 9.824 10.556 9.30333 10.116 9.01C9.67596 8.702 9.09663 8.54801 8.37796 8.54801C6.64729 8.54801 5.75263 9.516 5.69396 11.452C5.67929 11.848 5.67196 12.4567 5.67196 13.278C5.67196 14.0993 5.67929 14.7227 5.69396 15.148C5.75263 17.084 6.64729 18.052 8.37796 18.052C9.09663 18.052 9.68329 17.898 10.138 17.59C10.5927 17.2673 10.908 16.7467 11.084 16.028C11.1427 15.808 11.2233 15.6613 11.326 15.588C11.4287 15.5 11.5827 15.456 11.788 15.456H14.758C14.89 15.456 15 15.5 15.088 15.588C15.1907 15.676 15.2347 15.786 15.22 15.918C15.2053 16.9887 14.8973 17.9273 14.296 18.734C13.7093 19.526 12.9027 20.142 11.876 20.582C10.8493 21.0073 9.69063 21.22 8.39996 21.22ZM23.8253 21.22C21.7573 21.22 20.1293 20.714 18.9413 19.702C17.7533 18.69 17.1226 17.2013 17.0493 15.236C17.0346 14.8107 17.0273 14.18 17.0273 13.344C17.0273 12.4933 17.0346 11.8553 17.0493 11.43C17.1226 9.49401 17.7606 8.00533 18.9633 6.964C20.1806 5.908 21.8013 5.38 23.8253 5.38C25.8493 5.38 27.4699 5.908 28.6873 6.964C29.9046 8.00533 30.5426 9.49401 30.6013 11.43C30.6306 12.2807 30.6453 12.9187 30.6453 13.344C30.6453 13.7547 30.6306 14.3853 30.6013 15.236C30.5279 17.2013 29.8973 18.69 28.7093 19.702C27.5213 20.714 25.8933 21.22 23.8253 21.22ZM23.8253 18.052C24.6319 18.052 25.2699 17.81 25.7393 17.326C26.2233 16.842 26.4799 16.1013 26.5093 15.104C26.5386 14.2533 26.5533 13.652 26.5533 13.3C26.5533 12.9187 26.5386 12.3173 26.5093 11.496C26.4799 10.4987 26.2233 9.75801 25.7393 9.274C25.2553 8.79 24.6173 8.54801 23.8253 8.54801C23.0333 8.54801 22.3953 8.79 21.9113 9.274C21.4419 9.75801 21.1853 10.4987 21.1413 11.496C21.1266 11.9067 21.1193 12.508 21.1193 13.3C21.1193 14.0773 21.1266 14.6787 21.1413 15.104C21.1853 16.1013 21.4419 16.842 21.9113 17.326C22.3806 17.81 23.0186 18.052 23.8253 18.052ZM33.7454 21C33.5987 21 33.4667 20.9487 33.3494 20.846C33.2467 20.7287 33.1954 20.5967 33.1954 20.45V6.15C33.1954 5.98867 33.2467 5.85667 33.3494 5.754C33.4667 5.65133 33.5987 5.6 33.7454 5.6H39.4654C41.6214 5.6 43.2934 6.11333 44.4814 7.14C45.6694 8.16667 46.2927 9.65533 46.3514 11.606C46.366 12.0313 46.3734 12.596 46.3734 13.3C46.3734 14.004 46.366 14.5613 46.3514 14.972C46.278 17.0107 45.6694 18.5287 44.5254 19.526C43.396 20.5087 41.746 21 39.5754 21H33.7454ZM39.4654 17.832C40.4334 17.832 41.1447 17.6047 41.5994 17.15C42.054 16.6807 42.296 15.94 42.3254 14.928C42.3547 14.5027 42.3694 13.9527 42.3694 13.278C42.3694 12.6033 42.3547 12.0607 42.3254 11.65C42.296 10.6673 42.032 9.94133 41.5334 9.472C41.0494 9.00267 40.3234 8.768 39.3554 8.768H37.1554V17.832H39.4654ZM49.4934 21C49.3468 21 49.2148 20.9487 49.0974 20.846C48.9948 20.7287 48.9434 20.5967 48.9434 20.45V6.15C48.9434 5.98867 48.9948 5.85667 49.0974 5.754C49.2148 5.65133 49.3468 5.6 49.4934 5.6H59.7674C59.9288 5.6 60.0608 5.65133 60.1634 5.754C60.2661 5.85667 60.3174 5.98867 60.3174 6.15V8.21801C60.3174 8.36468 60.2661 8.49668 60.1634 8.61401C60.0608 8.71668 59.9288 8.768 59.7674 8.768H52.7494V11.738H59.2834C59.4448 11.738 59.5768 11.7967 59.6794 11.914C59.7821 12.0167 59.8334 12.1487 59.8334 12.31V14.224C59.8334 14.3707 59.7821 14.5027 59.6794 14.62C59.5768 14.7227 59.4448 14.774 59.2834 14.774H52.7494V17.832H59.9434C60.1048 17.832 60.2368 17.8833 60.3394 17.986C60.4421 18.0887 60.4934 18.2207 60.4934 18.382V20.45C60.4934 20.5967 60.4421 20.7287 60.3394 20.846C60.2368 20.9487 60.1048 21 59.9434 21H49.4934Z" fill="white"/>
<path d="M6.30224 40.15C5.49224 40.15 4.81224 40.035 4.26224 39.805C3.72224 39.575 3.32224 39.3 3.06224 38.98C2.80224 38.66 2.67224 38.375 2.67224 38.125C2.67224 38.025 2.70724 37.945 2.77724 37.885C2.85724 37.815 2.94224 37.78 3.03224 37.78H4.74224C4.80224 37.78 4.85724 37.805 4.90724 37.855C5.02724 37.935 5.11724 38 5.17724 38.05C5.39724 38.21 5.58724 38.33 5.74724 38.41C5.91724 38.48 6.12224 38.515 6.36224 38.515C6.65224 38.515 6.88724 38.46 7.06724 38.35C7.25724 38.23 7.35224 38.065 7.35224 37.855C7.35224 37.685 7.30224 37.55 7.20224 37.45C7.11224 37.35 6.93224 37.255 6.66224 37.165C6.39224 37.065 5.98224 36.96 5.43224 36.85C4.60224 36.68 3.96224 36.405 3.51224 36.025C3.07224 35.635 2.85224 35.115 2.85224 34.465C2.85224 34.055 2.98224 33.665 3.24224 33.295C3.50224 32.925 3.88724 32.625 4.39724 32.395C4.91724 32.165 5.53224 32.05 6.24224 32.05C6.95224 32.05 7.57224 32.16 8.10224 32.38C8.63224 32.6 9.03224 32.87 9.30224 33.19C9.58224 33.5 9.72224 33.785 9.72224 34.045C9.72224 34.135 9.68724 34.215 9.61724 34.285C9.55724 34.355 9.48224 34.39 9.39224 34.39H7.83224C7.75224 34.39 7.67724 34.365 7.60724 34.315C7.47724 34.245 7.36224 34.17 7.26224 34.09C7.09224 33.96 6.93224 33.86 6.78224 33.79C6.63224 33.72 6.44724 33.685 6.22724 33.685C5.96724 33.685 5.75724 33.745 5.59724 33.865C5.44724 33.985 5.37224 34.14 5.37224 34.33C5.37224 34.48 5.41224 34.605 5.49224 34.705C5.58224 34.805 5.76224 34.905 6.03224 35.005C6.31224 35.095 6.72224 35.19 7.26224 35.29C8.23224 35.46 8.93724 35.76 9.37724 36.19C9.82724 36.62 10.0522 37.125 10.0522 37.705C10.0522 38.445 9.72224 39.04 9.06224 39.49C8.40224 39.93 7.48224 40.15 6.30224 40.15ZM13.8732 40.15C13.3432 40.15 12.8582 40.05 12.4182 39.85C11.9882 39.64 11.6482 39.36 11.3982 39.01C11.1582 38.65 11.0382 38.255 11.0382 37.825C11.0382 37.135 11.3182 36.58 11.8782 36.16C12.4482 35.74 13.2282 35.45 14.2182 35.29L16.0932 35.005V34.795C16.0932 34.415 16.0132 34.135 15.8532 33.955C15.6932 33.775 15.4232 33.685 15.0432 33.685C14.8132 33.685 14.6232 33.725 14.4732 33.805C14.3232 33.885 14.1682 33.995 14.0082 34.135C13.8682 34.255 13.7632 34.335 13.6932 34.375C13.6632 34.455 13.6082 34.495 13.5282 34.495H11.8932C11.7932 34.495 11.7082 34.465 11.6382 34.405C11.5782 34.335 11.5532 34.255 11.5632 34.165C11.5732 33.895 11.7032 33.595 11.9532 33.265C12.2132 32.935 12.6032 32.65 13.1232 32.41C13.6532 32.17 14.3032 32.05 15.0732 32.05C16.3032 32.05 17.2132 32.325 17.8032 32.875C18.3932 33.415 18.6882 34.145 18.6882 35.065V39.625C18.6882 39.725 18.6532 39.815 18.5832 39.895C18.5132 39.965 18.4232 40 18.3132 40H16.5732C16.4732 40 16.3832 39.965 16.3032 39.895C16.2332 39.815 16.1982 39.725 16.1982 39.625V39.1C15.9782 39.41 15.6682 39.665 15.2682 39.865C14.8782 40.055 14.4132 40.15 13.8732 40.15ZM14.5782 38.44C15.0382 38.44 15.4082 38.29 15.6882 37.99C15.9782 37.69 16.1232 37.25 16.1232 36.67V36.46L14.8482 36.685C13.9482 36.845 13.4982 37.16 13.4982 37.63C13.4982 37.88 13.6032 38.08 13.8132 38.23C14.0232 38.37 14.2782 38.44 14.5782 38.44ZM20.9059 40C20.7959 40 20.7059 39.965 20.6359 39.895C20.5659 39.825 20.5309 39.735 20.5309 39.625V32.575C20.5309 32.465 20.5659 32.375 20.6359 32.305C20.7059 32.235 20.7959 32.2 20.9059 32.2H22.6309C22.7409 32.2 22.8309 32.235 22.9009 32.305C22.9809 32.375 23.0209 32.465 23.0209 32.575V33.145C23.2909 32.815 23.6359 32.55 24.0559 32.35C24.4859 32.15 24.9709 32.05 25.5109 32.05C26.3909 32.05 27.1059 32.35 27.6559 32.95C28.2059 33.54 28.4809 34.37 28.4809 35.44V39.625C28.4809 39.725 28.4459 39.815 28.3759 39.895C28.3059 39.965 28.2159 40 28.1059 40H26.2159C26.1159 40 26.0259 39.965 25.9459 39.895C25.8759 39.815 25.8409 39.725 25.8409 39.625V35.53C25.8409 35.06 25.7259 34.7 25.4959 34.45C25.2659 34.19 24.9359 34.06 24.5059 34.06C24.0859 34.06 23.7559 34.19 23.5159 34.45C23.2759 34.7 23.1559 35.06 23.1559 35.53V39.625C23.1559 39.725 23.1209 39.815 23.0509 39.895C22.9809 39.965 22.8909 40 22.7809 40H20.9059ZM30.8446 31.075C30.7346 31.075 30.6446 31.04 30.5746 30.97C30.5046 30.9 30.4696 30.81 30.4696 30.7V29.35C30.4696 29.24 30.5046 29.15 30.5746 29.08C30.6546 29.01 30.7446 28.975 30.8446 28.975H32.7346C32.8446 28.975 32.9346 29.01 33.0046 29.08C33.0746 29.15 33.1096 29.24 33.1096 29.35V30.7C33.1096 30.81 33.0746 30.9 33.0046 30.97C32.9346 31.04 32.8446 31.075 32.7346 31.075H30.8446ZM29.0146 42.85C28.9046 42.85 28.8146 42.815 28.7446 42.745C28.6646 42.675 28.6246 42.585 28.6246 42.475V41.26C28.6246 41.15 28.6646 41.06 28.7446 40.99C28.8146 40.92 28.9046 40.885 29.0146 40.885H29.5696C29.9196 40.885 30.1596 40.79 30.2896 40.6C30.4196 40.42 30.4846 40.15 30.4846 39.79V32.575C30.4846 32.465 30.5196 32.375 30.5896 32.305C30.6696 32.235 30.7596 32.2 30.8596 32.2H32.7196C32.8296 32.2 32.9196 32.235 32.9896 32.305C33.0596 32.375 33.0946 32.465 33.0946 32.575V39.85C33.0946 40.81 32.8096 41.55 32.2396 42.07C31.6796 42.59 30.8846 42.85 29.8546 42.85H29.0146ZM38.7006 40.15C37.4606 40.15 36.5056 39.855 35.8356 39.265C35.1656 38.675 34.8006 37.845 34.7406 36.775C34.7306 36.645 34.7256 36.42 34.7256 36.1C34.7256 35.78 34.7306 35.555 34.7406 35.425C34.8006 34.365 35.1756 33.54 35.8656 32.95C36.5556 32.35 37.5006 32.05 38.7006 32.05C39.9106 32.05 40.8606 32.35 41.5506 32.95C42.2406 33.54 42.6156 34.365 42.6756 35.425C42.6856 35.555 42.6906 35.78 42.6906 36.1C42.6906 36.42 42.6856 36.645 42.6756 36.775C42.6156 37.845 42.2506 38.675 41.5806 39.265C40.9106 39.855 39.9506 40.15 38.7006 40.15ZM38.7006 38.32C39.1406 38.32 39.4656 38.19 39.6756 37.93C39.8856 37.66 40.0056 37.25 40.0356 36.7C40.0456 36.6 40.0506 36.4 40.0506 36.1C40.0506 35.8 40.0456 35.6 40.0356 35.5C40.0056 34.96 39.8806 34.555 39.6606 34.285C39.4506 34.015 39.1306 33.88 38.7006 33.88C37.8706 33.88 37.4306 34.42 37.3806 35.5L37.3656 36.1L37.3806 36.7C37.4006 37.25 37.5156 37.66 37.7256 37.93C37.9456 38.19 38.2706 38.32 38.7006 38.32ZM47.5405 40.15C46.7305 40.15 46.0505 40.035 45.5005 39.805C44.9605 39.575 44.5605 39.3 44.3005 38.98C44.0405 38.66 43.9105 38.375 43.9105 38.125C43.9105 38.025 43.9455 37.945 44.0155 37.885C44.0955 37.815 44.1805 37.78 44.2705 37.78H45.9805C46.0405 37.78 46.0955 37.805 46.1455 37.855C46.2655 37.935 46.3555 38 46.4155 38.05C46.6355 38.21 46.8255 38.33 46.9855 38.41C47.1555 38.48 47.3605 38.515 47.6005 38.515C47.8905 38.515 48.1255 38.46 48.3055 38.35C48.4955 38.23 48.5905 38.065 48.5905 37.855C48.5905 37.685 48.5405 37.55 48.4405 37.45C48.3505 37.35 48.1705 37.255 47.9005 37.165C47.6305 37.065 47.2205 36.96 46.6705 36.85C45.8405 36.68 45.2005 36.405 44.7505 36.025C44.3105 35.635 44.0905 35.115 44.0905 34.465C44.0905 34.055 44.2205 33.665 44.4805 33.295C44.7405 32.925 45.1255 32.625 45.6355 32.395C46.1555 32.165 46.7705 32.05 47.4805 32.05C48.1905 32.05 48.8105 32.16 49.3405 32.38C49.8705 32.6 50.2705 32.87 50.5405 33.19C50.8205 33.5 50.9605 33.785 50.9605 34.045C50.9605 34.135 50.9255 34.215 50.8555 34.285C50.7955 34.355 50.7205 34.39 50.6305 34.39H49.0705C48.9905 34.39 48.9155 34.365 48.8455 34.315C48.7155 34.245 48.6005 34.17 48.5005 34.09C48.3305 33.96 48.1705 33.86 48.0205 33.79C47.8705 33.72 47.6855 33.685 47.4655 33.685C47.2055 33.685 46.9955 33.745 46.8355 33.865C46.6855 33.985 46.6105 34.14 46.6105 34.33C46.6105 34.48 46.6505 34.605 46.7305 34.705C46.8205 34.805 47.0005 34.905 47.2705 35.005C47.5505 35.095 47.9605 35.19 48.5005 35.29C49.4705 35.46 50.1755 35.76 50.6155 36.19C51.0655 36.62 51.2905 37.125 51.2905 37.705C51.2905 38.445 50.9605 39.04 50.3005 39.49C49.6405 39.93 48.7205 40.15 47.5405 40.15ZM56.3715 40.15C55.1715 40.15 54.2265 39.825 53.5365 39.175C52.8465 38.525 52.4865 37.58 52.4565 36.34V35.815C52.4965 34.635 52.8615 33.715 53.5515 33.055C54.2515 32.385 55.1865 32.05 56.3565 32.05C57.2065 32.05 57.9215 32.225 58.5015 32.575C59.0915 32.915 59.5315 33.385 59.8215 33.985C60.1215 34.585 60.2715 35.275 60.2715 36.055V36.415C60.2715 36.515 60.2365 36.605 60.1665 36.685C60.0965 36.755 60.0065 36.79 59.8965 36.79H55.0965V36.895C55.1165 37.365 55.2315 37.745 55.4415 38.035C55.6515 38.325 55.9565 38.47 56.3565 38.47C56.6065 38.47 56.8115 38.42 56.9715 38.32C57.1315 38.21 57.2765 38.08 57.4065 37.93C57.4965 37.82 57.5665 37.755 57.6165 37.735C57.6765 37.705 57.7665 37.69 57.8865 37.69H59.7465C59.8365 37.69 59.9115 37.72 59.9715 37.78C60.0415 37.83 60.0765 37.9 60.0765 37.99C60.0765 38.25 59.9265 38.55 59.6265 38.89C59.3365 39.23 58.9115 39.525 58.3515 39.775C57.7915 40.025 57.1315 40.15 56.3715 40.15ZM57.6315 35.305V35.275C57.6315 34.785 57.5165 34.4 57.2865 34.12C57.0665 33.83 56.7565 33.685 56.3565 33.685C55.9665 33.685 55.6565 33.83 55.4265 34.12C55.2065 34.4 55.0965 34.785 55.0965 35.275V35.305H57.6315Z" fill="#E7ECEF"/>
<path d="M60.7891 24.4238H0.789062V26.4238H60.7891V24.4238Z" fill="#FCFF6C"/>
</svg>
